<svg width="24" height="24" viewBox="0 0 24 24" fill="none" xmlns="http://www.w3.org/2000/svg">
<path fill-rule="evenodd" clip-rule="evenodd" d="M11.99 2C6.47 2 2 6.48 2 12C2 17.52 6.47 22 11.99 22C17.52 22 22 17.52 22 12C22 6.48 17.52 2 11.99 2ZM12 20C7.58 20 4 16.42 4 12C4 7.58 7.58 4 12 4C16.42 4 20 7.58 20 12C20 16.42 16.42 20 12 20ZM11 7H12.5V12.25L17 14.92L16.25 16.15L11 13V7Z" fill="black" fill-opacity="0.54"/>
<path d="M6 23C3.24375 23 1 20.7562 1 18C1 15.2438 3.24375 13 6 13C8.75625 13 11 15.2438 11 18C11 20.7562 8.75625 23 6 23Z" fill="#F26780"/>
<path d="M6 23C3.24375 23 1 20.7562 1 18C1 15.2438 3.24375 13 6 13C8.75625 13 11 15.2438 11 18C11 20.7562 8.75625 23 6 23Z" fill="#F26780"/>
<path d="M6 23C3.24375 23 1 20.7562 1 18C1 15.2438 3.24375 13 6 13C8.75625 13 11 15.2438 11 18C11 20.7562 8.75625 23 6 23Z" stroke="#F2F2F2" stroke-width="0.05"/>
<path d="M6.53564 20.1431H5.28564V21.5716H6.53564V20.1431Z" fill="white"/>
<path d="M6.53564 14.4287H5.28564V18.7144H6.53564V14.4287Z" fill="white"/>
</svg>
