<svg width="244" height="83" viewBox="0 0 244 83" fill="none" xmlns="http://www.w3.org/2000/svg">
<path d="M0 56.2107H20.27L27.5992 44.1861L37.3334 73.7322L51.9919 23L61.268 63.0818L69.0553 56.2107H94.9367L100 48.9494" stroke="#FFF3F3" stroke-width="5"/>
<path d="M116.2 52.36C118.08 52.36 119.82 51.92 121.42 51.04C123.02 50.16 124.48 48.86 125.8 47.14L132.58 53.56C130.74 55.96 128.3 57.9 125.26 59.38C122.22 60.86 119.08 61.6 115.84 61.6C112.72 61.6 109.8 61.04 107.08 59.92C104.36 58.8 102.02 57.28 100.06 55.36C98.1 53.44 96.54 51.16 95.38 48.52C94.26 45.88 93.7 43.04 93.7 40C93.7 36.96 94.26 34.12 95.38 31.48C96.54 28.8 98.1 26.5 100.06 24.58C102.06 22.66 104.4 21.14 107.08 20.02C109.8 18.9 112.72 18.34 115.84 18.34C119.2 18.34 122.42 19.08 125.5 20.56C128.58 22.04 131.04 24.02 132.88 26.5L125.92 33.1C124.56 31.26 123.02 29.88 121.3 28.96C119.62 28 117.8 27.52 115.84 27.52C114.2 27.52 112.68 27.84 111.28 28.48C109.88 29.12 108.66 30 107.62 31.12C106.62 32.2 105.82 33.52 105.22 35.08C104.66 36.6 104.38 38.24 104.38 40C104.38 41.76 104.68 43.4 105.28 44.92C105.88 46.44 106.7 47.76 107.74 48.88C108.82 49.96 110.08 50.82 111.52 51.46C112.96 52.06 114.52 52.36 116.2 52.36ZM137.964 61V30.04H147.684V35.08C148.884 33.28 150.304 31.92 151.944 31C153.624 30.04 155.464 29.56 157.464 29.56C160.464 29.56 162.924 30.56 164.844 32.56C166.764 34.52 167.724 37.04 167.724 40.12V61H158.004V42.94C158.004 41.22 157.524 39.84 156.564 38.8C155.644 37.72 154.404 37.18 152.844 37.18C151.804 37.18 150.844 37.4 149.964 37.84C149.124 38.24 148.364 38.88 147.684 39.76V61H137.964ZM178.255 51.46V37.54H172.255V30.04H178.255V21.46L187.975 19.48V30.04H196.255V37.54H187.975V49.54C187.975 50.9 188.275 51.86 188.875 52.42C189.515 52.98 190.575 53.26 192.055 53.26C192.615 53.26 193.175 53.22 193.735 53.14C194.295 53.06 195.055 52.88 196.015 52.6V60.46C195.135 60.74 194.055 60.96 192.775 61.12C191.495 61.32 190.355 61.42 189.355 61.42C185.715 61.42 182.955 60.58 181.075 58.9C179.195 57.22 178.255 54.74 178.255 51.46ZM199.721 57.82L203.981 51.34C206.181 52.5 208.021 53.32 209.501 53.8C210.981 54.24 212.461 54.46 213.941 54.46C215.301 54.46 216.381 54.24 217.181 53.8C217.981 53.32 218.381 52.7 218.381 51.94C218.381 51.34 218.141 50.86 217.661 50.5C217.221 50.14 216.501 49.88 215.501 49.72L209.561 48.64C206.561 48.08 204.281 47.04 202.721 45.52C201.201 44 200.441 42.04 200.441 39.64C200.441 36.48 201.581 34 203.861 32.2C206.181 30.4 209.361 29.5 213.401 29.5C215.561 29.5 217.701 29.8 219.821 30.4C221.941 31 224.001 31.88 226.001 33.04L221.561 39.22C220.001 38.34 218.481 37.68 217.001 37.24C215.561 36.8 214.121 36.58 212.681 36.58C211.521 36.58 210.601 36.78 209.921 37.18C209.281 37.54 208.961 38.06 208.961 38.74C208.961 39.38 209.181 39.86 209.621 40.18C210.101 40.5 210.941 40.76 212.141 40.96L217.961 42.04C221.001 42.6 223.321 43.66 224.921 45.22C226.521 46.74 227.301 48.66 227.261 50.98C227.261 52.5 226.921 53.92 226.241 55.24C225.601 56.52 224.681 57.64 223.481 58.6C222.281 59.52 220.861 60.26 219.221 60.82C217.581 61.34 215.821 61.6 213.941 61.6C211.141 61.6 208.521 61.28 206.081 60.64C203.641 60 201.521 59.06 199.721 57.82Z" fill="#FFF3F3"/>
</svg>
