<svg width="25" height="24" viewBox="0 0 25 24" fill="none" xmlns="http://www.w3.org/2000/svg">
<path d="M10.7843 4.41176C10.7843 7.6605 10.6017 10.2941 7.35294 10.2941C4.10421 10.2941 0 9.62128 0 6.37255C0 3.12382 1.65323 0 4.90196 0C8.15069 0 10.7843 1.16303 10.7843 4.41176Z" fill="#EDD533"/>
<path d="M25 6.86275C25 10.1115 24.8174 12.7451 21.5686 12.7451C18.3199 12.7451 14.2157 12.0723 14.2157 8.82353C14.2157 5.5748 15.8689 2.45098 19.1176 2.45098C22.3664 2.45098 25 3.61401 25 6.86275Z" fill="#EDD533"/>
<path d="M4.41176 19.1176C4.41176 15.8689 4.5944 13.2353 7.84314 13.2353C11.0919 13.2353 15.1961 13.9081 15.1961 17.1569C15.1961 20.4056 13.5429 23.5294 10.2941 23.5294C7.04538 23.5294 4.41176 22.3664 4.41176 19.1176Z" fill="#EDD533"/>
</svg>
