<svg width="24" height="24" viewBox="0 0 24 24" fill="none" xmlns="http://www.w3.org/2000/svg">
<path fill-rule="evenodd" clip-rule="evenodd" d="M2 3H22C23.1 3 24 3.9 24 5L23.99 19C23.99 20.1 23.1 21 22 21H2C0.9 21 0 20.1 0 19V5C0 3.9 0.9 3 2 3ZM2 19H22V5H2V19ZM9 12C10.65 12 12 10.65 12 9C12 7.35 10.65 6 9 6C7.35 6 6 7.35 6 9C6 10.65 7.35 12 9 12ZM10 9C10 8.45 9.55 8 9 8C8.45 8 8 8.45 8 9C8 9.55 8.45 10 9 10C9.55 10 10 9.55 10 9ZM15 16.59C15 14.09 11.03 13.01 9 13.01C6.97 13.01 3 14.09 3 16.59V18H15V16.59ZM9 15C7.7 15 6.22 15.5 5.48 16H12.52C11.77 15.49 10.3 15 9 15Z" fill="black" fill-opacity="0.54"/>
<path d="M15 7H16V8H15V7Z" fill="#757575"/>
<path d="M15 9H16V10H15V9Z" fill="#757575"/>
<path d="M15 11H16V12H15V11Z" fill="#757575"/>
<path d="M17 7H20V8H17V7Z" fill="#757575"/>
<path d="M17 9H20V10H17V9Z" fill="#757575"/>
<path d="M17 11H20V12H17V11Z" fill="#757575"/>
</svg>
