<svg width="25" height="25" viewBox="0 0 25 25" fill="none" xmlns="http://www.w3.org/2000/svg">
<path fill-rule="evenodd" clip-rule="evenodd" d="M21.875 20.8335V6.25016C21.875 5.10433 20.9375 4.16683 19.7917 4.16683H18.75V2.0835H16.6667V4.16683H8.33333V2.0835H6.25V4.16683H5.20833C4.05208 4.16683 3.13542 5.10433 3.13542 6.25016L3.125 20.8335C3.125 21.9793 4.05208 22.9168 5.20833 22.9168H19.7917C20.9375 22.9168 21.875 21.9793 21.875 20.8335ZM9.375 13.5418V11.4585H7.29167V13.5418H9.375ZM5.20833 8.3335H19.7917V6.25016H5.20833V8.3335ZM19.7917 10.4168V20.8335H5.20833V10.4168H19.7917ZM17.7083 13.5418V11.4585H15.625V13.5418H17.7083ZM13.5417 13.5418H11.4583V11.4585H13.5417V13.5418Z" fill="black" fill-opacity="0.54"/>
</svg>
