<svg width="20" height="20" viewBox="0 0 20 20" fill="none" xmlns="http://www.w3.org/2000/svg">
<path fill-rule="evenodd" clip-rule="evenodd" d="M0 10C0 4.48 4.48 0 10 0C15.52 0 20 4.48 20 10V11.43C20 13.4 18.47 15 16.5 15C15.31 15 14.19 14.42 13.54 13.53C12.64 14.44 11.38 15 10 15C7.24 15 5 12.76 5 10C5 7.24 7.24 5 10 5C12.76 5 15 7.24 15 10V11.43C15 12.22 15.71 13 16.5 13C17.29 13 18 12.22 18 11.43V10C18 5.66 14.34 2 10 2C5.66 2 2 5.66 2 10C2 14.34 5.66 18 10 18H15V20H10C4.48 20 0 15.52 0 10ZM7 10C7 11.66 8.34 13 10 13C11.66 13 13 11.66 13 10C13 8.34 11.66 7 10 7C8.34 7 7 8.34 7 10Z" fill="black" fill-opacity="0.54"/>
</svg>
