<svg width="30" height="29" viewBox="0 0 30 29" fill="none" xmlns="http://www.w3.org/2000/svg">
<path d="M22.4525 5.11261L23.7881 6.36239L20.5043 9.4571L21.4265 10.3632L24.6785 7.19558L26.0141 8.44537L28.2193 2.66638L22.4525 5.11261Z" fill="#35A2FF" stroke="#35A2FF" stroke-width="2"/>
<path d="M22.25 14.0791C22.0289 17.4655 19.149 20.0376 15.8215 19.8204C12.4941 19.6031 9.973 16.6784 10.1941 13.292" stroke="#35A2FF" stroke-width="3"/>
<path d="M8.14788 6C4.75425 6 2 8.70627 2 12.0408C2 15.3753 4.75425 18.0816 8.14788 18.0816C11.5415 18.0816 14.2958 15.3753 14.2958 12.0408C14.2958 8.70627 11.5415 6 8.14788 6Z" stroke="#FF63B2" stroke-width="3"/>
<path d="M11.5655 21.1927V20.6927H11.0655H9.12797V18.6855V18.1855H8.62797H7.51127H7.01127V18.6855V20.6927H5.07373H4.57373V21.1927V22.2251V22.7251H5.07373H7.01127V24.9387V25.4387H7.51127H8.62797H9.12797V24.9387V22.7251H11.0655H11.5655V22.2251V21.1927Z" fill="#FF63B2" stroke="#FF63B2"/>
<path d="M22.25 14.0791C22.4711 10.6927 19.95 7.76798 16.6226 7.55074C13.2951 7.3335 10.4152 9.90559 10.1941 13.292" stroke="#35A2FF" stroke-width="3"/>
</svg>
