<svg width="28" height="26" viewBox="0 0 28 26" fill="none" xmlns="http://www.w3.org/2000/svg">
<path d="M14.1479 7C10.7542 7 8 9.70627 8 13.0408C8 16.3753 10.7542 19.0816 14.1479 19.0816C17.5415 19.0816 20.2958 16.3753 20.2958 13.0408C20.2958 9.70627 17.5415 7 14.1479 7Z" stroke="#757575" stroke-width="2"/>
<path d="M20.1566 4.11261L21.4922 5.36239L18.2084 8.4571L19.1306 9.36322L22.3826 6.19558L23.7182 7.44537L25.9234 1.66638L20.1566 4.11261Z" fill="#757575" stroke="#757575"/>
<path d="M7.14788 6C3.75425 6 1 8.70627 1 12.0408C1 15.3753 3.75425 18.0816 7.14788 18.0816C10.5415 18.0816 13.2958 15.3753 13.2958 12.0408C13.2958 8.70627 10.5415 6 7.14788 6Z" stroke="#757575" stroke-width="2"/>
<path d="M10.3155 21.1927V20.9427H10.0655H7.87797V18.6855V18.4355H7.62797H6.51127H6.26127V18.6855V20.9427H4.07373H3.82373V21.1927V22.2251V22.4751H4.07373H6.26127V24.9387V25.1887H6.51127H7.62797H7.87797V24.9387V22.4751H10.0655H10.3155V22.2251V21.1927Z" fill="#757575" stroke="#757575" stroke-width="0.5"/>
</svg>
