<svg width="18" height="26" viewBox="0 0 18 26" fill="none" xmlns="http://www.w3.org/2000/svg">
<path fill-rule="evenodd" clip-rule="evenodd" d="M8.75 0.5C3.9125 0.5 0 4.4125 0 9.25C0 15.8125 8.75 25.5 8.75 25.5C8.75 25.5 17.5 15.8125 17.5 9.25C17.5 4.4125 13.5875 0.5 8.75 0.5ZM2.5 9.25C2.5 5.8 5.3 3 8.75 3C12.2 3 15 5.8 15 9.25C15 12.85 11.4 18.2375 8.75 21.6C6.15 18.2625 2.5 12.8125 2.5 9.25ZM5.625 9.25C5.625 7.52411 7.02411 6.125 8.75 6.125C9.86646 6.125 10.8981 6.72062 11.4563 7.6875C12.0146 8.65438 12.0146 9.84562 11.4563 10.8125C10.8981 11.7794 9.86646 12.375 8.75 12.375C7.02411 12.375 5.625 10.9759 5.625 9.25Z" fill="black" fill-opacity="0.54"/>
</svg>
